<svg version="1.1" id="Layer_1" xmlns="http://www.w3.org/2000/svg" x="0" y="0" viewBox="0 0 299.995 299.995" xml:space="preserve"><path d="M149.995 0C67.156 0 0 67.158 0 149.995s67.156 150 149.995 150 150-67.163 150-150S232.834 0 149.995 0zM81.542 161.215c-15.284-16.988-16.155-42.353 0-58.511s42.345-16.155 58.503 0l1.567 1.567-21.739 50.064c-.003.01-.005.021-.01.031a7.642 7.642 0 00-.345 1.084c-.036.137-.099.27-.124.405-.023.106-.018.223-.036.332a7.773 7.773 0 00-.122 1.222c0 .01-.003.018-.003.029 0 .135.034.259.039.389.018.371.041.739.112 1.102.047.244.132.469.202.703.073.246.132.495.228.734.099.241.228.462.35.69.114.218.215.438.35.646.135.202.296.381.449.573.163.202.314.412.495.599.176.179.379.332.573.493.189.161.368.332.576.475.293.202.615.363.936.524.127.062.239.15.371.208.008.005.018.005.029.008.48.207.98.371 1.504.48a7.834 7.834 0 001.564.161c.01 0 .023-.003.036-.003h30.913l-20.207 46.544c-16.285-13.565-44.591-37.636-56.211-50.549zm136.913 0c-16.768 18.632-68.294 60.508-68.294 60.508h-.205a7.745 7.745 0 001.346-2.085l25.658-59.105.008-.023c.156-.363.262-.744.363-1.133.031-.122.086-.241.112-.363.021-.099.018-.205.034-.306.07-.415.127-.835.127-1.25 0-.008.003-.016.003-.023 0-.117-.031-.226-.036-.34a7.739 7.739 0 00-.114-1.154c-.049-.239-.132-.456-.197-.685-.073-.254-.135-.508-.236-.755-.096-.239-.228-.459-.35-.687-.114-.215-.215-.438-.35-.643-.137-.207-.301-.389-.456-.586-.161-.197-.306-.405-.488-.589-.184-.189-.394-.348-.599-.516-.182-.153-.35-.316-.547-.451a7.906 7.906 0 00-.999-.558c-.109-.054-.2-.127-.314-.176-.008-.003-.016-.003-.023-.008a7.518 7.518 0 00-1.11-.355c-.13-.034-.254-.093-.384-.119-.101-.021-.213-.018-.316-.034a7.74 7.74 0 00-1.237-.124c-.01 0-.018-.003-.029-.003h-30.949l19.859-45.733 1.219-1.219c16.155-16.155 42.345-16.155 58.506 0 16.151 16.161 15.277 41.527-.002 58.515z"/></svg>