<svg xmlns="http://www.w3.org/2000/svg" viewBox="0 0 521.68 143.84"><defs><style>.cls-4{fill:#f58220}.cls-3{fill:#f69241}.cls-3,.cls-4,.cls-5{fill-rule:evenodd}.cls-5{fill:#f9a667}</style></defs><g id="Layer_2" data-name="Layer 2"><g id="Layer_1-2" data-name="Layer 1"><path d="M482.92 84l24.45-14a15.27 15.27 0 00-11.45-4.78 14.84 14.84 0 00-11.86 5.57 17.05 17.05 0 00-2.86 5.72 24.81 24.81 0 00-1 7.32 17.73 17.73 0 001.13 6.31 26.64 26.64 0 003.47 5.67 14.73 14.73 0 0011.56 4.92q7.26 0 11-4.1t5.37-12l9 1.28a22.69 22.69 0 01-3 10.61 26 26 0 01-23 13.39 23.61 23.61 0 01-12.16-3.52 25.94 25.94 0 01-9.36-9.51 25.28 25.28 0 01-3.42-12.73 35.35 35.35 0 011.79-12.07 21.08 21.08 0 015.77-8.54q7.88-7.29 17.59-7.27 8.38 0 14.06 3.89t10 12.32l-33.18 19.17zm-70.23-26.69h9.83l14.42 39.76 14.3-39.76h9.61l-17.18 47.46a10.45 10.45 0 01-2.76 3.62 7.34 7.34 0 01-4.19 1.18q-5.52 0-7.06-5.44zm-16.87 51.19V79a12.11 12.11 0 00-2-6.82 13.34 13.34 0 00-5.63-5 18.47 18.47 0 00-8.48-1.92l-3.38.32a12.32 12.32 0 00-1.48.32 16.5 16.5 0 00-8.54 6.51 18.12 18.12 0 00-2.66 10.13q0 8.2 4.86 13.17a15.26 15.26 0 0011.2 5q7.05 0 12.57-7.15v11.31l-6.54 3.73a18.17 18.17 0 01-6.85 1.07q-9.62 0-16.92-7.42t-7.31-19.67a27.14 27.14 0 016.74-18.56q6.75-7.66 19-7.67a26.12 26.12 0 0113.24 3.25 21.61 21.61 0 018.54 8.58 26.53 26.53 0 012.15 5.65 25 25 0 01.71 6v28.67zM283.15 57.31h9v33.27a11.21 11.21 0 002.3 7 7.52 7.52 0 006.29 3q9.72 0 9.72-11.52V57.31h9.2v32.63q0 10.66 9.81 10.67a8 8 0 006.34-3q2.25-3 2.25-8.74V57.31h9V93a14.47 14.47 0 01-1.43 6.5 15 15 0 01-4.19 5.55 16.38 16.38 0 01-11.35 4.48 19.47 19.47 0 01-8.49-1.6 20.68 20.68 0 01-6.54-5.55 17.07 17.07 0 01-6 5.44 19.85 19.85 0 01-8.28 1.71A17.72 17.72 0 01293 108a16.63 16.63 0 01-5.67-4.53 19.3 19.3 0 01-4.19-11.63zm-30.58 30v-8.56h23v8.53zM236.83 34h9v50q0 8.43-6.34 17.14t-19 8.71q-11.76 0-18.2-8.45a33.87 33.87 0 01-6.65-17.31c0-1.56 0-3 .11-4.42a35.76 35.76 0 01.56-4.71 17.48 17.48 0 012.2-5.62 26.67 26.67 0 018.89-9.51 23.86 23.86 0 015.27-2.45 17.24 17.24 0 015.37-1q9.71 0 15.23 3.43v9.9a51.43 51.43 0 00-6.75-3.41 17.19 17.19 0 00-3.58-1h-4.09a15.36 15.36 0 00-10.75 6 15.86 15.86 0 00-2.76 5.78 37.78 37.78 0 00-.51 3.53 40.69 40.69 0 00-.21 4.38 21.36 21.36 0 00.31 3.85 11.88 11.88 0 001.12 3.31 14.67 14.67 0 004.4 5.13q5.52 3.66 10.53 3.65A13.46 13.46 0 00232.69 95q4.14-5.87 4.14-14.84z" fill="#f58220"/><path d="M405 85.24q-4.68-.9-9.2-2v25.26h9.2zm46.86-3.16c-3.5.87-7 1.66-10.38 2.32l-4.56 12.67-4.08-11.26q-4.86.64-9.53.84l6.33 17.48q1.54 5.43 7.06 5.44a7.34 7.34 0 004.19-1.18 10.45 10.45 0 002.76-3.62zm30.89-9.38a559.87 559.87 0 01-11.38 3.75 43 43 0 00-.62 7.68 25.28 25.28 0 003.42 12.73 25.94 25.94 0 009.36 9.51 23.61 23.61 0 0012.16 3.52 26 26 0 0023-13.39 22.69 22.69 0 003-10.61l-9-1.28q-1.64 7.89-5.37 12t-11 4.1a14.73 14.73 0 01-11.56-4.92 26.64 26.64 0 01-3.47-5.67 17.73 17.73 0 01-1.13-6.31 24.81 24.81 0 011-7.32 18.9 18.9 0 011.61-3.79zm30.06-10.23c-3.67 1.2-7.38 2.46-11.12 3.73a15.48 15.48 0 015.68 3.8l-24.45 14 3.9 7.62L520 72.46a36.49 36.49 0 00-7.17-9.99zM383.92 99.91q3.57 2.66 7.08 5.56l1.24-.7V93.46a18 18 0 01-8.32 6.45zM354.62 83q4.8 2 9.51 4.47a22.61 22.61 0 01-.52-5 19 19 0 012-9c-2.82-1.11-5.59-2.26-8.32-3.42a28.45 28.45 0 00-2.64 12.37zm-16.57-5.64q4.54 1.2 9 2.74V65.56c-3.05-1.4-6.05-2.82-9-4.23zm-27.6-3.17q4.62.14 9.2.48V57.31h-9.2zm-27.3 1.15q4.52-.5 9-.79V57.31h-9zm-30.58 5.49q4.62-1.14 9.18-2.08h-9.18zm-51.92 18.25a34 34 0 01-5-15c0-1.56 0-3 .11-4.42a35.76 35.76 0 01.56-4.71 17.48 17.48 0 012.2-5.62 26.67 26.67 0 018.89-9.51 23.86 23.86 0 015.27-2.45 17.24 17.24 0 015.37-1q9.71 0 15.23 3.43v9.9a51.43 51.43 0 00-6.75-3.41 17.19 17.19 0 00-3.58-1h-4.09a15.36 15.36 0 00-10.76 6.01 15.86 15.86 0 00-2.76 5.78 37.78 37.78 0 00-.51 3.53 40.69 40.69 0 00-.21 4.38 21.36 21.36 0 00.31 3.85 11.88 11.88 0 001.12 3.31 14.27 14.27 0 002.51 3.48q-3.93 1.66-7.91 3.45zM236.83 34h9v48.6q-4.67 1.28-9.38 2.76a33.83 33.83 0 00.38-5.16z" fill="#f69241"/><path class="cls-3" d="M41.1 66v24h-.72a50.16 50.16 0 00-6.13.34C21.12 92 9.93 98.32 0 106.63V49.28C14.41 51.9 27.7 59.44 41.1 66"/><path class="cls-4" d="M97.92 106.56l-.43.75a34.23 34.23 0 01-29 16h-2.28a4.56 4.56 0 01-4.56-4.56v-26.9c12.35 3.65 24.26 9.76 36.27 14.71"/><path class="cls-3" d="M102.75 70.28v18.81a34.07 34.07 0 01-4.87 17.54c-12-5-23.9-11-36.23-14.68V73.84c12.24 3.59 25.11 4.25 37-1.39 1.39-.73 2.76-1.39 4.09-2.17m61.65-32.61v66a55.87 55.87 0 01-10 6.65 49.81 49.81 0 01-22.52 5.29c-2.86 0-8.56 2.13-8.56-.72v-61l3.32-3.75c8.1-9.29 16-18.93 26.28-25.91a77.83 77.83 0 017.05-4.28 6 6 0 01.34.67 37.28 37.28 0 014.11 17v.11z"/><path class="cls-5" d="M159.94 19.89a80.06 80.06 0 00-7 4.27c-10.28 7-18.27 16.62-26.28 25.92l-3.41 3.74V3.42A3.43 3.43 0 01126.72 0a37.69 37.69 0 0133.19 19.89z"/><path class="cls-4" d="M41.1 88.7v32.88a22.28 22.28 0 01-22.26 22.26A18.84 18.84 0 010 125v-19.58c9.89-8.31 21.07-14.64 34.25-16.37a54.5 54.5 0 016.13-.35h.72z"/><path class="cls-5" d="M41.1 58.22v8.54C27.7 60.23 14.41 52.7 0 50.07V24a3.42 3.42 0 013.42-3.42A37.65 37.65 0 0141.1 58.2zm61.65 3.43v10c-1.33.77-2.7 1.5-4.09 2.16-11.9 5.64-24.77 5-37 1.4V61.65a20.55 20.55 0 1141.1 0z"/><path class="cls-4" d="M164.39 103v20.34a20.55 20.55 0 11-41.1 0v-9.13a51.17 51.17 0 008.56.73 50.57 50.57 0 0022.52-5.3 59.22 59.22 0 0010-6.64z"/></g></g></svg>