<?xml version="1.0" encoding="utf-8"?><svg viewBox="0 0 39 39" xmlns="http://www.w3.org/2000/svg" xmlns:xlink="http://www.w3.org/1999/xlink"><style>:root>svg{display:none}:root>svg:target{display:block}</style><svg fill="none" viewBox="0 0 12 22" id="btn-arrow" xmlns="http://www.w3.org/2000/svg"><path fill-rule="evenodd" clip-rule="evenodd" d="M11.724 11.195l-10 10.495-1.448-1.38L9.147 11 .276 1.69 1.724.31l10 10.495-.205.195.205.195z" fill="#F2923E"/></svg><svg fill="none" viewBox="0 0 39 39" id="close-btn-menu" xmlns="http://www.w3.org/2000/svg"><path fill-rule="evenodd" clip-rule="evenodd" d="M35.94 38.06l-35-35L3.06.94l35 35-2.12 2.12z" fill="#fff"/><path fill-rule="evenodd" clip-rule="evenodd" d="M3.06 38.06l35-35L35.94.94l-35 35 2.12 2.12z" fill="#fff"/></svg><svg fill="none" viewBox="0 0 25 25" id="messenger-header" xmlns="http://www.w3.org/2000/svg"><path d="M0 11.574c0 3.642 1.817 6.89 4.657 9.013V25l4.257-2.335a13.46 13.46 0 003.585.484c6.903 0 12.5-5.181 12.5-11.574C25 5.182 19.403 0 12.5 0 5.597 0 0 5.181 0 11.574zm11.181-3.242l3.26 3.395 6.133-3.395-6.833 7.252-3.183-3.393-6.211 3.394 6.834-7.253z" fill="#fff"/></svg><svg fill="none" viewBox="0 0 17 32" id="slider-next" xmlns="http://www.w3.org/2000/svg"><path fill-rule="evenodd" clip-rule="evenodd" d="M15.643 17.083L1.725 31.69.277 30.31 13.912 16 .277 1.69 1.725.31l13.918 14.607 1.082 1.03-.05.053.05.052-1.082 1.031z" fill="#fff"/></svg><svg fill="none" viewBox="0 0 17 32" id="slider-prev" xmlns="http://www.w3.org/2000/svg"><path fill-rule="evenodd" clip-rule="evenodd" d="M1.358 14.917L15.276.31l1.448 1.38L3.09 16l13.635 14.31-1.448 1.38L1.358 17.083l-1.082-1.03.05-.053-.05-.052 1.082-1.031z" fill="#fff"/></svg><svg fill="none" viewBox="0 0 25 21" id="telegram-header" xmlns="http://www.w3.org/2000/svg"><path d="M9.81 13.814l-.414 5.816c.592 0 .848-.254 1.155-.56l2.774-2.65 5.748 4.21c1.054.587 1.797.277 2.081-.97l3.773-17.68h.001c.335-1.56-.563-2.168-1.59-1.786L1.16 8.684c-1.514.588-1.491 1.432-.258 1.814l5.67 1.764 13.17-8.241c.62-.41 1.183-.183.72.227L9.81 13.814z" fill="#fff"/></svg><svg fill="none" viewBox="0 0 25 25" id="whatsapp-header" xmlns="http://www.w3.org/2000/svg"><path d="M12.503 0h-.006C5.605 0 0 5.606 0 12.5c0 2.734.881 5.269 2.38 7.327L.822 24.47l4.805-1.536A12.392 12.392 0 0012.503 25C19.395 25 25 19.392 25 12.5S19.395 0 12.503 0zm7.274 17.652c-.302.851-1.499 1.557-2.454 1.764-.653.139-1.506.25-4.378-.941-3.673-1.522-6.039-5.255-6.223-5.497-.177-.242-1.485-1.976-1.485-3.77s.911-2.667 1.279-3.042c.301-.308.8-.449 1.278-.449.154 0 .294.008.419.014.367.016.551.038.793.617.302.727 1.036 2.52 1.124 2.705.089.184.178.434.053.677-.117.25-.22.36-.405.573-.184.213-.36.375-.544.603-.168.199-.359.411-.146.778.212.36.946 1.558 2.028 2.52 1.395 1.243 2.526 1.64 2.93 1.808.302.125.662.096.882-.139.28-.301.625-.801.977-1.293.25-.353.565-.397.897-.272.337.117 2.123 1 2.49 1.183.367.184.61.271.699.426.087.155.087.881-.214 1.735z" fill="#fff"/></svg></svg>