<?xml version="1.0" encoding="utf-8"?><svg viewBox="0 0 70 50" xmlns="http://www.w3.org/2000/svg" xmlns:xlink="http://www.w3.org/1999/xlink"><style>:root>svg{display:none}:root>svg:target{display:block}</style><svg fill="none" viewBox="0 0 12 22" id="btn-arrow" xmlns="http://www.w3.org/2000/svg"><path fill-rule="evenodd" clip-rule="evenodd" d="M11.724 11.195l-10 10.495-1.448-1.38L9.147 11 .276 1.69 1.724.31l10 10.495-.205.195.205.195z" fill="#F2923E"/></svg><svg fill="none" viewBox="0 0 39 39" id="close-btn" xmlns="http://www.w3.org/2000/svg"><path fill-rule="evenodd" clip-rule="evenodd" d="M35.94 38.06l-35-35L3.06.94l35 35-2.12 2.12z" fill="#fff"/><path fill-rule="evenodd" clip-rule="evenodd" d="M3.06 38.06l35-35L35.94.94l-35 35 2.12 2.12z" fill="#fff"/></svg><svg fill="none" viewBox="0 0 35 35" id="email-footer" xmlns="http://www.w3.org/2000/svg"><rect x=".75" y="5.205" width="33.5" height="24.75" rx="2.25" stroke="#fff" stroke-width="1.5"/><path d="M6.563 9.768l11.25 10 11.25-10M6.25 25.705L15 17.58m14.375 8.125l-8.75-8.437" stroke="#F2923E" stroke-width="1.5" stroke-linecap="round"/></svg><svg fill="none" viewBox="0 0 35 35" id="facebook-footer" xmlns="http://www.w3.org/2000/svg"><g clip-path="url(#dclip0)"><path d="M14.107 13.625a.5.5 0 00.5-.5V8.224c0-2.564.758-4.483 2.01-5.76C17.87 1.19 19.673.5 21.87.5c1.777 0 3.347.112 4.155.193V5.31H23.33c-1.324 0-2.252.326-2.822 1.025-.55.674-.669 1.586-.67 2.504v4.287a.5.5 0 00.5.5h5.088l-.65 5.22H20.34a.5.5 0 00-.5.5V34.5h-5.233V19.346a.5.5 0 00-.5-.5H9.523v-5.221h4.584z" stroke="#fff" stroke-linejoin="round"/></g><defs><clipPath id="dclip0"><path fill="#fff" d="M0 0h35v35H0z"/></clipPath></defs></svg><svg fill="none" viewBox="0 0 10 24" id="information" xmlns="http://www.w3.org/2000/svg"><path d="M6.301 23.386c-.95.152-2.84.532-3.8.608-.814.064-1.58-.382-2.048-1.023a2.318 2.318 0 01-.303-2.197l3.78-9.977H0C-.003 8.718 1.621 7.19 3.7 6.603c.991-.28 2.839-.663 3.8-.604.576.035 1.58.381 2.047 1.022.469.641.581 1.461.303 2.197l-3.78 9.977h3.929c0 2.077-1.564 3.85-3.698 4.19zM7.5 4.799c-1.38 0-2.5-1.075-2.5-2.4S6.12 0 7.5 0 10 1.074 10 2.4c0 1.325-1.12 2.399-2.5 2.399z" fill="#FFFEFE"/></svg><svg fill="none" viewBox="0 0 35 35" id="instagram-footer" xmlns="http://www.w3.org/2000/svg"><circle cx="17.5" cy="17.5" r="7.2" stroke="#fff"/><rect x=".5" y=".5" width="34" height="34" rx="9.5" stroke="#fff"/><circle cx="27.5" cy="7.5" r="1.5" fill="#fff"/></svg><svg fill="none" viewBox="0 0 37 37" id="messenger-footer" xmlns="http://www.w3.org/2000/svg"><path d="M18.5 33.941c9.665 0 17.5-7.374 17.5-16.47C36 8.374 28.165 1 18.5 1S1 8.374 1 17.47c0 4.954 2.323 9.396 6 12.416V36l5.146-3.178c1.97.722 4.113 1.12 6.354 1.12z" stroke="#fff" stroke-linejoin="round"/><path d="M16.5 13L8 21.5l8.5-4L21 22l8.5-9-8.5 4-4.5-4z" stroke="#F2923E" stroke-linejoin="round"/></svg><svg fill="none" viewBox="0 0 25 25" id="messenger-header" xmlns="http://www.w3.org/2000/svg"><path d="M0 11.574c0 3.642 1.817 6.89 4.657 9.013V25l4.257-2.335a13.46 13.46 0 003.585.484c6.903 0 12.5-5.181 12.5-11.574C25 5.182 19.403 0 12.5 0 5.597 0 0 5.181 0 11.574zm11.181-3.242l3.26 3.395 6.133-3.395-6.833 7.252-3.183-3.393-6.211 3.394 6.834-7.253z" fill="#fff"/></svg><svg fill="none" viewBox="0 0 36 35" id="phone-footer" xmlns="http://www.w3.org/2000/svg"><path d="M7.499.776v.111a3 3 0 003 3h4a3 3 0 003-3v-.11" stroke="#fff" stroke-width="1.2"/><rect x=".6" y=".6" width="23.8" height="33.8" rx="2.4" stroke="#fff" stroke-width="1.2"/><path d="M29.642 10.857c1.153 1.683 1.79 3.53 1.79 5.47 0 1.938-.637 3.786-1.79 5.468M27 13.429c.85.989 1.32 2.075 1.32 3.214 0 1.14-.47 2.226-1.32 3.214M32.283 7C33.98 9.445 35 12.581 35 16c0 3.419-1.02 6.555-2.717 9" stroke="#F2923E" stroke-width="1.2" stroke-linecap="round"/></svg><svg fill="none" viewBox="0 0 30 17" id="portfolio-desc-icon" xmlns="http://www.w3.org/2000/svg"><path fill-rule="evenodd" clip-rule="evenodd" d="M15 0l15 15-1.414 1.414-15-15L15 0z" fill="#fff"/><path fill-rule="evenodd" clip-rule="evenodd" d="M15 0L0 15l1.414 1.414 15-15L15 0z" fill="#fff"/></svg><svg fill="none" viewBox="0 0 70 50" id="quote" xmlns="http://www.w3.org/2000/svg"><path d="M15 29H1V1h28v28.764L19.382 49H6.618l9.276-18.553.724-1.447H15zM55.001 29h-14V1h28v28.764L59.383 49H46.619l9.276-18.553L56.62 29h-1.618z" stroke="#fff" stroke-opacity=".3" stroke-width="2"/></svg><svg fill="none" viewBox="0 0 17 32" id="slider-next" xmlns="http://www.w3.org/2000/svg"><path fill-rule="evenodd" clip-rule="evenodd" d="M15.643 17.083L1.725 31.69.277 30.31 13.912 16 .277 1.69 1.725.31l13.918 14.607 1.082 1.03-.05.053.05.052-1.082 1.031z" fill="#fff"/></svg><svg fill="none" viewBox="0 0 17 32" id="slider-prev" xmlns="http://www.w3.org/2000/svg"><path fill-rule="evenodd" clip-rule="evenodd" d="M1.358 14.917L15.276.31l1.448 1.38L3.09 16l13.635 14.31-1.448 1.38L1.358 17.083l-1.082-1.03.05-.053-.05-.052 1.082-1.031z" fill="#fff"/></svg><svg fill="none" viewBox="0 0 35 35" id="telegram-footer" xmlns="http://www.w3.org/2000/svg"><g clip-path="url(#nclip0)" stroke-width="1.5"><path d="M13.711 22.88v4.347a1 1 0 001.647.763l2.435-2.064a1 1 0 011.247-.037l8.217 6.174a1 1 0 001.578-.588l5.774-26.67a1 1 0 00-1.334-1.146L2.465 15.431c-.86.329-.856 1.547.006 1.87l6.189 2.326" stroke="#fff"/><path d="M13.712 22.88l11.15-9.159c.92-.756-.017-2.2-1.083-1.667L8.66 19.627" stroke="#F2923E" stroke-linecap="round"/></g><defs><clipPath id="nclip0"><path fill="#fff" d="M0 0h35v35H0z"/></clipPath></defs></svg><svg fill="none" viewBox="0 0 25 21" id="telegram-header" xmlns="http://www.w3.org/2000/svg"><path d="M9.81 13.814l-.414 5.816c.592 0 .848-.254 1.155-.56l2.774-2.65 5.748 4.21c1.054.587 1.797.277 2.081-.97l3.773-17.68h.001c.335-1.56-.563-2.168-1.59-1.786L1.16 8.684c-1.514.588-1.491 1.432-.258 1.814l5.67 1.764 13.17-8.241c.62-.41 1.183-.183.72.227L9.81 13.814z" fill="#fff"/></svg><svg fill="none" viewBox="0 0 35 35" id="viber-footer" xmlns="http://www.w3.org/2000/svg"><path d="M20.833 0h-6.667C7.184 0 1.503 5.68 1.503 12.66v6.006c0 5.199 3.195 9.871 7.998 11.774v3.893a.666.666 0 001.114.494l3.865-3.5h6.353c6.982 0 12.663-5.68 12.663-12.66V12.66C33.496 5.679 27.816 0 20.833 0zm11.33 18.666c0 6.246-5.082 11.328-11.33 11.328h-6.61a.665.665 0 00-.447.172l-2.942 2.665v-2.853a.665.665 0 00-.444-.628 11.351 11.351 0 01-7.554-10.684v-6.005c0-6.246 5.083-11.328 11.33-11.328h6.667c6.248 0 11.33 5.082 11.33 11.328v6.005z" fill="#fff"/><path d="M26.308 20.324l-4.096-2.66a1.996 1.996 0 00-2.767.586l-.192.296c-1.773-.586-3.728-1.335-4.899-4.723l.485-.42c.832-.724.92-1.99.196-2.822L11.83 6.894a.667.667 0 00-.94-.066l-2.012 1.75c-1.765 1.533-.94 3.803-.67 4.549a.668.668 0 00.044.096c.07.126 1.741 3.108 4.44 5.857 2.71 2.76 7.601 5.308 7.751 5.382a3.336 3.336 0 004.61-.98l1.452-2.235a.668.668 0 00-.197-.923zm-2.374 2.432c-.6.925-1.841 1.188-2.821.556-.049-.025-4.908-2.556-7.47-5.166-2.394-2.438-3.984-5.148-4.2-5.526-.528-1.48-.435-2.39.31-3.036l1.509-1.312 2.767 3.183a.66.66 0 01-.064.94l-.818.711a.666.666 0 00-.2.7c1.395 4.53 4.106 5.42 6.086 6.07l.288.095a.664.664 0 00.77-.268l.473-.728a.659.659 0 01.922-.194l3.537 2.297-1.089 1.678zM19.021 10.829a.665.665 0 10-.365 1.282 3.016 3.016 0 012.064 2.069.667.667 0 001.283-.362 4.358 4.358 0 00-2.982-2.99z" fill="#F2923E"/><path d="M24.093 14.81a.667.667 0 00.642-.847 8.464 8.464 0 00-5.791-5.805.666.666 0 10-.365 1.282 7.122 7.122 0 014.873 4.885c.083.293.35.485.641.485z" fill="#F2923E"/><path d="M18.657 5.053a.666.666 0 10-.365 1.282 12.066 12.066 0 018.257 8.276.667.667 0 001.283-.36c-1.246-4.418-4.761-7.941-9.175-9.198z" fill="#F2923E"/></svg><svg fill="none" viewBox="0 0 35 35" id="wapp-footer" xmlns="http://www.w3.org/2000/svg"><path d="M17.5 0C7.85 0 0 7.85 0 17.5c0 3.292.915 6.488 2.65 9.263-.691 2.422-1.94 7.003-1.953 7.05a.67.67 0 00.847.82L8.481 32.5A17.457 17.457 0 0017.5 35C27.15 35 35 27.15 35 17.5S27.15 0 17.5 0zm0 33.654c-3.042 0-6.005-.85-8.569-2.458a.674.674 0 00-.555-.072l-6.057 1.864c.445-1.624 1.244-4.529 1.708-6.145a.675.675 0 00-.082-.553 16.092 16.092 0 01-2.599-8.79c0-8.907 7.247-16.154 16.154-16.154S33.654 8.593 33.654 17.5 26.407 33.654 17.5 33.654z" fill="#fff"/><path d="M28.932 21.624c-1.242-.69-2.3-1.382-3.072-1.887-.59-.385-1.016-.663-1.328-.82-.873-.435-1.535-.128-1.787.127a.673.673 0 00-.084.102c-.907 1.36-2.09 2.661-2.437 2.731-.4-.062-2.275-1.128-4.138-2.68-1.902-1.584-3.099-3.102-3.275-4.136 1.22-1.256 1.66-2.046 1.66-2.945 0-.927-2.162-4.797-2.553-5.188-.392-.391-1.276-.453-2.627-.183a.68.68 0 00-.344.183c-.163.164-3.99 4.066-2.172 8.795 1.997 5.19 7.12 11.223 13.654 12.203a14.15 14.15 0 002.09.166c3.843 0 6.111-1.934 6.75-5.77a.67.67 0 00-.337-.698zm-8.303 4.97c-6.909-1.036-11.26-7.88-12.597-11.355-1.326-3.446 1.12-6.518 1.733-7.213.5-.085 1.025-.12 1.244-.086.459.637 2.046 3.636 2.116 4.176 0 .353-.115.845-1.486 2.216a.67.67 0 00-.197.476c0 3.524 7.434 8.413 8.75 8.413 1.145 0 2.638-1.924 3.488-3.178a.64.64 0 01.25.078c.242.122.662.396 1.193.743a53.446 53.446 0 002.733 1.698c-.5 2.403-1.895 4.833-7.228 4.032z" fill="#F2923E"/></svg><svg fill="none" viewBox="0 0 25 25" id="whatsapp-header" xmlns="http://www.w3.org/2000/svg"><path d="M12.503 0h-.006C5.605 0 0 5.606 0 12.5c0 2.734.881 5.269 2.38 7.327L.822 24.47l4.805-1.536A12.392 12.392 0 0012.503 25C19.395 25 25 19.392 25 12.5S19.395 0 12.503 0zm7.274 17.652c-.302.851-1.499 1.557-2.454 1.764-.653.139-1.506.25-4.378-.941-3.673-1.522-6.039-5.255-6.223-5.497-.177-.242-1.485-1.976-1.485-3.77s.911-2.667 1.279-3.042c.301-.308.8-.449 1.278-.449.154 0 .294.008.419.014.367.016.551.038.793.617.302.727 1.036 2.52 1.124 2.705.089.184.178.434.053.677-.117.25-.22.36-.405.573-.184.213-.36.375-.544.603-.168.199-.359.411-.146.778.212.36.946 1.558 2.028 2.52 1.395 1.243 2.526 1.64 2.93 1.808.302.125.662.096.882-.139.28-.301.625-.801.977-1.293.25-.353.565-.397.897-.272.337.117 2.123 1 2.49 1.183.367.184.61.271.699.426.087.155.087.881-.214 1.735z" fill="#fff"/></svg></svg>