<?xml version="1.0" encoding="iso-8859-1"?><svg viewBox="0 0 300 300" xmlns="http://www.w3.org/2000/svg" xmlns:xlink="http://www.w3.org/1999/xlink"><style>:root>svg{display:none}:root>svg:target{display:block}</style><svg viewBox="0 0 300 300" id="airplane" xmlns="http://www.w3.org/2000/svg"><path d="M149.997 0C67.158 0 .003 67.161.003 149.997S67.158 300 149.997 300s150-67.163 150-150.003S232.837 0 149.997 0zm72.981 99.461l-32.435 30.711 20.562 82.844-12.27 12.27-39.262-64.028-.905-.905-40.385 38.24c-.228.231-.485.405-.718.622l-1.297 29.481-44.965-44.962 29.471-1.294c.218-.239.394-.493.625-.724l38.24-40.387-.325-.329-64.601-39.832 12.27-12.27 82.471 20.946 31.079-32.827c6.201-6.201 16.251-6.199 22.447 0 6.197 6.198 6.197 16.246-.002 22.444z"/></svg><svg viewBox="0 0 300 300" id="attachment" xmlns="http://www.w3.org/2000/svg"><path d="M149.996 0C67.157 0 .001 67.161.001 149.997S67.157 300 149.996 300s150.003-67.163 150.003-150.003S232.835 0 149.996 0zm72.003 133.598L123.43 232.16l.005.005c-.034.034-.067.057-.101.091l-.604.604-.031-.034c-5.561 5.179-12.766 7.763-20.225 7.763-8.896 0-18.124-3.628-25.264-10.769-6.349-6.344-10.156-14.54-10.719-23.078-.558-8.445 2.116-16.236 7.485-22.134l-.054-.054 97.41-97.41c8.227-8.229 22.209-7.623 31.177 1.343 4.204 4.204 6.733 9.656 7.109 15.346.399 5.996-1.707 11.765-5.776 15.829l-79.296 79.304-11.005-11.002 79.301-79.307c1.162-1.162 1.32-2.703 1.248-3.787-.127-1.898-1.071-3.859-2.588-5.377-2.85-2.85-7.049-3.462-9.168-1.341l-96.455 96.453.003.003c-2.783 2.78-4.155 6.725-3.864 11.108.316 4.77 2.516 9.423 6.196 13.103 7.306 7.304 18.14 8.364 24.18 2.376l98.608-98.6c4.593-4.596 6.865-11.056 6.393-18.186-.498-7.519-3.942-14.825-9.692-20.575-11.599-11.596-28.983-13.077-38.761-3.304l-81.579 81.576-11.005-11.002 81.579-81.579c15.842-15.839 43.103-14.361 60.768 3.302 8.421 8.416 13.468 19.265 14.218 30.55.771 11.672-3.107 22.404-10.924 30.221z"/></svg><svg viewBox="0 0 299.995 299.995" id="broken-heart" xmlns="http://www.w3.org/2000/svg"><path d="M149.995 0C67.156 0 0 67.158 0 149.995s67.156 150 149.995 150 150-67.163 150-150S232.834 0 149.995 0zM81.542 161.215c-15.284-16.988-16.155-42.353 0-58.511s42.345-16.155 58.503 0l1.567 1.567-21.739 50.064c-.003.01-.005.021-.01.031a7.642 7.642 0 00-.345 1.084c-.036.137-.099.27-.124.405-.023.106-.018.223-.036.332a7.773 7.773 0 00-.122 1.222c0 .01-.003.018-.003.029 0 .135.034.259.039.389.018.371.041.739.112 1.102.047.244.132.469.202.703.073.246.132.495.228.734.099.241.228.462.35.69.114.218.215.438.35.646.135.202.296.381.449.573.163.202.314.412.495.599.176.179.379.332.573.493.189.161.368.332.576.475.293.202.615.363.936.524.127.062.239.15.371.208.008.005.018.005.029.008.48.207.98.371 1.504.48a7.834 7.834 0 001.564.161c.01 0 .023-.003.036-.003h30.913l-20.207 46.544c-16.285-13.565-44.591-37.636-56.211-50.549zm136.913 0c-16.768 18.632-68.294 60.508-68.294 60.508h-.205a7.745 7.745 0 001.346-2.085l25.658-59.105.008-.023c.156-.363.262-.744.363-1.133.031-.122.086-.241.112-.363.021-.099.018-.205.034-.306.07-.415.127-.835.127-1.25 0-.008.003-.016.003-.023 0-.117-.031-.226-.036-.34a7.739 7.739 0 00-.114-1.154c-.049-.239-.132-.456-.197-.685-.073-.254-.135-.508-.236-.755-.096-.239-.228-.459-.35-.687-.114-.215-.215-.438-.35-.643-.137-.207-.301-.389-.456-.586-.161-.197-.306-.405-.488-.589-.184-.189-.394-.348-.599-.516-.182-.153-.35-.316-.547-.451a7.906 7.906 0 00-.999-.558c-.109-.054-.2-.127-.314-.176-.008-.003-.016-.003-.023-.008a7.518 7.518 0 00-1.11-.355c-.13-.034-.254-.093-.384-.119-.101-.021-.213-.018-.316-.034a7.74 7.74 0 00-1.237-.124c-.01 0-.018-.003-.029-.003h-30.949l19.859-45.733 1.219-1.219c16.155-16.155 42.345-16.155 58.506 0 16.151 16.161 15.277 41.527-.002 58.515z"/></svg><svg viewBox="0 0 300 300" id="browser" xmlns="http://www.w3.org/2000/svg"><path d="M78.841 216.367c0 4.186 3.408 7.594 7.597 7.594H213.56c4.189 0 7.597-3.405 7.597-7.594v-85.456H78.841v85.456zM221.154 98.03c.002-4.186-3.406-7.594-7.594-7.594H86.438c-4.189 0-7.597 3.405-7.597 7.594v17.32h142.313V98.03zm-119.137 11.251h-9.736V98.906h9.736v10.375zm17.67 0h-9.736V98.906h9.736v10.375zm17.668 0h-9.736V98.906h9.736v10.375z"/><path d="M149.996 0C67.157 0 .001 67.161.001 149.997S67.157 300 149.996 300s150.003-67.163 150.003-150.003S232.835 0 149.996 0zm86.722 216.367c0 12.768-10.39 23.156-23.158 23.156H86.438c-12.768 0-23.158-10.387-23.158-23.156V98.03c0-12.768 10.387-23.156 23.158-23.156H213.56c12.768 0 23.158 10.387 23.158 23.156v118.337z"/></svg><svg viewBox="0 0 300 300" id="cancel" xmlns="http://www.w3.org/2000/svg"><path d="M112.782 205.804A66.426 66.426 0 00150 217.159c36.837 0 66.808-29.971 66.808-66.808a66.426 66.426 0 00-11.355-37.218l-92.671 92.671zM150 83.542c-36.839 0-66.808 29.969-66.808 66.808 0 15.595 5.384 29.946 14.374 41.326l93.758-93.758C179.946 88.926 165.595 83.542 150 83.542z"/><path d="M149.997 0C67.158 0 .003 67.161.003 149.997S67.158 300 149.997 300s150-67.163 150-150.003S232.837 0 149.997 0zM150 237.907c-48.28 0-87.557-39.28-87.557-87.557 0-48.28 39.277-87.557 87.557-87.557 48.277 0 87.557 39.277 87.557 87.557 0 48.277-39.28 87.557-87.557 87.557z"/></svg><svg viewBox="0 0 299.998 299.998" id="center-alignment" xmlns="http://www.w3.org/2000/svg"><path d="M149.995 0C67.156 0 0 67.161 0 149.997s67.156 150 149.995 150 150.003-67.163 150.003-150C299.997 67.159 232.834 0 149.995 0zM63.924 70.263h172.144v15.561H63.924V70.263zm151.504 36.138v15.562H84.566v-15.562h130.862zm-151.504 35.49h172.144v15.561H63.924v-15.561zm151.504 36.138v15.562H84.566v-15.562h130.862zM63.924 229.078v-15.562h172.144v15.562H63.924z"/></svg><svg viewBox="0 0 299.998 299.998" id="clock" xmlns="http://www.w3.org/2000/svg"><path d="M149.997 0C67.157 0 .001 67.158.001 149.995s67.156 150.003 149.995 150.003 150-67.163 150-150.003S232.836 0 149.997 0zm10.358 168.337c-.008.394-.067.788-.122 1.183-.039.296-.057.599-.124.89-.067.303-.182.602-.28.905-.117.366-.226.731-.379 1.076-.029.06-.039.124-.065.184-.226.482-.488.934-.775 1.362-.018.026-.042.052-.06.078-.327.48-.7.916-1.092 1.325-.109.112-.22.213-.335.319-.345.329-.708.63-1.094.905-.119.086-.233.176-.358.259-.495.324-1.014.609-1.554.843-.117.052-.239.083-.358.13a10.425 10.425 0 01-1.909.542c-.612.112-1.232.189-1.86.189-.127 0-.257-.039-.384-.044-.602-.023-1.198-.07-1.771-.192-.179-.039-.355-.117-.534-.166a10.53 10.53 0 01-1.554-.529c-.057-.029-.117-.034-.174-.06l-57.515-27.129c-5.182-2.443-7.402-8.626-4.959-13.808 2.443-5.179 8.626-7.402 13.808-4.959l42.716 20.144V62.249c0-5.729 4.645-10.374 10.374-10.374s10.374 4.645 10.374 10.374V168.15h.002c0 .062-.018.124-.018.187z"/></svg><svg viewBox="0 0 299.995 299.995" id="clock-1" xmlns="http://www.w3.org/2000/svg"><path d="M149.995 0C67.156 0 0 67.158 0 149.995s67.156 150 149.995 150 150-67.163 150-150S232.834 0 149.995 0zm64.847 178.524H151.25c-.215 0-.415-.052-.628-.06-.213.01-.412.06-.628.06-5.729 0-10.374-4.645-10.374-10.374V62.249c0-5.729 4.645-10.374 10.374-10.374s10.374 4.645 10.374 10.374v95.527h54.47c5.729 0 10.374 4.645 10.374 10.374 0 5.729-4.641 10.374-10.37 10.374z"/></svg><svg viewBox="0 0 300 300" id="cloud-computing" xmlns="http://www.w3.org/2000/svg"><path d="M149.997 0C67.158 0 .003 67.161.003 149.997S67.158 300 149.997 300s150-67.163 150-150.003S232.837 0 149.997 0zm59.456 220.955c-1.644 0-3.268-.091-4.866-.254a40.07 40.07 0 01-4.448.254h-37.656l40.504-40.87c2.342-2.365 3.079-5.983 1.849-9.137-1.227-3.156-4.165-5.218-7.431-5.218h-19.958v-42.662c0-5.14-4.171-9.311-9.311-9.311h-28.231c-5.14 0-9.311 4.168-9.311 9.311v42.662h-21.576c-4.43 0-8.019 3.737-8.019 8.354 0 2.63 1.162 4.969 2.977 6.5l40.011 40.372H83.794c-21.916 0-39.684-17.771-39.684-39.684 0-18.256 12.327-33.615 29.108-38.245 1.854-15.541 15.058-27.598 31.094-27.598 4.85 0 9.428 1.136 13.526 3.105 7.973-22.188 29.188-38.053 54.118-38.053 29.896 0 54.455 22.821 57.227 51.988 15.779 7.42 26.709 23.454 26.709 42.045-.001 25.649-20.791 46.441-46.439 46.441z"/></svg><svg viewBox="0 0 300 300" id="compass" xmlns="http://www.w3.org/2000/svg"><path d="M149.999 74.97c-41.191 0-74.703 33.509-74.703 74.7 0 41.194 33.512 74.706 74.703 74.706s74.703-33.512 74.703-74.706c0-41.188-33.512-74.7-74.703-74.7zm-41.272 115.967l21.2-50.414 29.222 29.214-50.422 21.2zm61.39-32.238l-29.155-29.147 50.303-21.148-21.148 50.295z"/><path d="M149.996 0C67.157 0 .001 67.161.001 149.997S67.157 300 149.996 300s150.003-67.163 150.003-150.003S232.835 0 149.996 0zm.003 239.938c-49.771 0-90.265-40.494-90.265-90.267 0-49.771 40.491-90.262 90.265-90.262s90.265 40.491 90.265 90.262-40.494 90.267-90.265 90.267z"/></svg><svg viewBox="0 0 300 300" id="computer" xmlns="http://www.w3.org/2000/svg"><path d="M221.755 89.414H78.242a2.595 2.595 0 00-2.594 2.594v95.963a2.595 2.595 0 002.594 2.594h143.513a2.595 2.595 0 002.594-2.594V92.007a2.595 2.595 0 00-2.594-2.593z"/><path d="M149.996 0C67.157 0 .001 67.161.001 149.997S67.157 300 149.996 300s150.003-67.163 150.003-150.003S232.835 0 149.996 0zm92.508 187.97c0 11.458-9.29 20.749-20.749 20.749h-47.144v11.588h23.801a7.78 7.78 0 017.781 7.781 7.78 7.78 0 01-7.781 7.781h-96.826a7.78 7.78 0 01-7.781-7.781 7.78 7.78 0 017.781-7.781h23.801v-11.588H78.242c-11.458 0-20.749-9.29-20.749-20.749V92.007c0-11.458 9.29-20.749 20.749-20.749h143.513c11.458 0 20.749 9.29 20.749 20.749v95.963z"/></svg><svg viewBox="0 0 300 300" id="cursor" xmlns="http://www.w3.org/2000/svg"><path d="M149.996 0C67.157 0 .001 67.161.001 149.997S67.157 300 149.996 300s150.003-67.163 150.003-150.003S232.835 0 149.996 0zM208.8 94.181l-38.097 107.473a2.59 2.59 0 01-2.067 1.699 2.597 2.597 0 01-2.469-1.032l-19.346-26.434-31.981 31.979c-.506.506-1.17.76-1.834.76s-1.328-.254-1.834-.76L91.806 188.5a2.59 2.59 0 010-3.667l31.979-31.984-26.436-19.343a2.594 2.594 0 01.664-4.536l107.473-38.097a2.588 2.588 0 012.7.609c.71.704.949 1.755.614 2.699z"/></svg><svg viewBox="0 0 299.998 299.998" id="document" xmlns="http://www.w3.org/2000/svg"><path d="M103.313 111.747h93.369v10.374h-93.369zM103.313 157.773h93.369v10.374h-93.369zM103.313 134.76h93.369v10.374h-93.369z"/><path d="M149.995 0C67.156 0 0 67.159 0 149.997c0 82.837 67.156 150 149.995 150s150.003-67.163 150.003-150C299.997 67.159 232.834 0 149.995 0zm35.693 64.565l31.517 28.669h-31.517V64.565zm-14.913 150.011v20.855h-69.76c-10.068 0-18.225-8.159-18.225-18.225V82.79c0-10.066 8.159-18.225 18.225-18.225h76.889v36.45h39.298v79.763H194.2v.01h-90.887v10.374h90.89v12.639h-90.89v10.374h67.462v.401zm73.634 16.411h-23.425v23.425h-16.407v-23.425h-23.428v-16.41h23.428v-23.425h16.407v23.425h23.425v16.41z"/></svg><svg viewBox="0 0 299.998 299.998" id="document-1" xmlns="http://www.w3.org/2000/svg"><path d="M103.313 157.774h93.369v10.374h-93.369zM103.313 134.761h93.369v10.374h-93.369z"/><path d="M149.995.001C67.156.001 0 67.16 0 149.999s67.156 149.997 149.995 149.997 150.003-67.161 150.003-149.997C299.997 67.157 232.834.001 149.995.001zm35.693 64.562l31.517 28.669h-31.517V64.563zm13.294 170.867h-97.967c-10.068 0-18.225-8.159-18.225-18.225V82.79c0-10.066 8.159-18.225 18.225-18.225h76.889v36.45h39.298v92.412H169.826V203.8h-66.512v10.374h66.513V230.49h41.602c-3.26 3.057-7.63 4.94-12.447 4.94zm31.036-15.314H180.2V203.8h49.818v16.316z"/><path d="M103.313 111.746h93.369v10.374h-93.369zM103.313 180.787h93.369v10.374h-93.369z"/></svg><svg viewBox="0 0 299.998 299.998" id="document-2" xmlns="http://www.w3.org/2000/svg"><path d="M149.995.001C67.156.001 0 67.16 0 149.999s67.156 149.997 149.995 149.997 150.003-67.161 150.003-149.997C299.997 67.157 232.834.001 149.995.001zm67.21 217.203c0 10.066-8.159 18.225-18.223 18.225h-97.967c-10.068 0-18.225-8.159-18.225-18.225V82.79c0-10.066 8.159-18.225 18.225-18.225h76.892v36.45h39.298v116.189zM185.688 93.232V64.563l31.517 28.669h-31.517z"/></svg><svg viewBox="0 0 299.994 299.994" id="document-3" xmlns="http://www.w3.org/2000/svg"><path d="M87.751 180.456h93.369v10.374H87.751zM87.751 157.444h93.369v10.374H87.751zM87.751 134.433h93.369v10.374H87.751zM87.751 204.792h93.369v10.374H87.751z"/><path d="M149.997 0C67.156 0 0 67.156 0 149.997s67.156 149.997 149.997 149.997 149.997-67.156 149.997-149.997S232.839 0 149.997 0zm51.644 211.953v18.225c0 10.066-8.159 18.225-18.22 18.225H85.453c-10.066 0-18.225-8.159-18.225-18.225V95.763c0-10.066 8.157-18.225 18.225-18.225h97.967c10.066 0 18.223 8.159 18.22 18.228l.001 18.222v97.965zm23.345-23.343v18.217c0 8.237-5.467 15.193-12.971 17.45V95.763c0-15.769-12.828-28.599-28.594-28.599H91.349c2.259-7.503 9.21-12.971 17.45-12.971h97.967c10.061 0 18.22 8.162 18.217 18.228v18.223h.003v97.966z"/><path d="M87.751 111.418h93.369v10.374H87.751z"/></svg><svg viewBox="0 0 299.998 299.998" id="download" xmlns="http://www.w3.org/2000/svg"><path d="M149.995 0C67.156 0 0 67.159 0 149.997c0 82.837 67.156 150 149.995 150s150.003-67.163 150.003-150C299.997 67.159 232.834 0 149.995 0zm-39.028 105.357a10.588 10.588 0 017.511-3.112 10.58 10.58 0 017.508 3.112l13.297 13.295V62.477c0-5.867 4.754-10.621 10.621-10.621s10.621 4.754 10.621 10.621v56.893l4.63-4.63 9.386-9.384c2.075-2.075 4.79-3.112 7.508-3.112s5.436 1.037 7.511 3.112c2.552 2.549 3.522 6.079 2.933 9.384 0 .003-.003.005-.003.008-.044.239-.119.469-.179.703a9.83 9.83 0 01-.322 1.084 9.826 9.826 0 01-.296.705c-.166.371-.358.726-.568 1.079-.112.187-.215.373-.34.552a10.75 10.75 0 01-1.227 1.499l-15.115 15.115-16.591 16.591a10.583 10.583 0 01-7.508 3.105h-.156c-2.715 0-5.431-1.03-7.508-3.105l-16.591-16.591-15.115-15.115a10.4 10.4 0 01-1.222-1.496c-.127-.184-.231-.373-.345-.56a11.134 11.134 0 01-.864-1.787c-.127-.348-.223-.7-.314-1.056-.062-.246-.143-.485-.187-.734-.598-3.301.37-6.831 2.925-9.38zm120.607 103.958h-.003c0 14.337-14.057 25.568-32.005 25.568h-99.132c-17.945 0-32.005-11.23-32.005-25.568V140.31c0-12.117 10.058-21.988 24.004-24.761.604 5.981 3.224 11.526 7.534 15.834l4.108 4.108h-3.641c-7.265 0-11.256 3.621-11.256 4.819v69.005c0 1.201 3.992 4.819 11.256 4.819h99.135c7.265 0 11.256-3.621 11.256-4.819V140.31c0-1.198-3.992-4.819-11.256-4.819h-3.12l4.111-4.111c4.282-4.279 6.894-9.786 7.516-15.727 13.681 2.913 23.498 12.69 23.498 24.66v69.002z"/></svg><svg viewBox="0 0 300 300" id="earth-globe" xmlns="http://www.w3.org/2000/svg"><path d="M204.572 164.656c1.678 6.632-16.682 4.528-21.166 10.737-4.487 6.206-15.45 2.036-17.992.843s-12.278 2.783-11.427-3.976c.846-6.761 6.769-7.158 13.121-9.941 6.349-2.78 15.507-12.024 11.007-13.232-21.187-5.683-28.415-25.586-28.415-25.586-1.271-.239-.952-14.07-6.453-14.467-5.506-.399-8.471 1.59-16.511 0-8.045-1.59-6.349-6.759-7.62-17.893-1.268-11.134 3.39-7.555 5.906-11.132.22-.314.506-.594.786-.874-29.458 10.086-50.705 38.035-50.705 70.867l.003.156c5.475.353 15.445 1.509 15.914 5.265.648 5.187 0 11.671 4.539 13.616s5.836-7.781 9.726-5.187c3.89 2.594 14.265 5.091 14.265 9.677 0 4.585-1.945 11.72 0 13.017s9.721 10.374 9.723 11.671c.003 1.297 2.741 7.892 1.924 10.413-.677 2.09-4.093 8.58-7.405 11.531A74.545 74.545 0 00150 224.902c41.3 0 74.9-33.6 74.9-74.9a74.427 74.427 0 00-8.188-33.986c.501 7.617.163 14.558 1.831 16.832 7.299 9.939-17.781 16.776-13.971 31.808z"/><path d="M149.997 0C67.158 0 .003 67.161.003 149.997S67.158 300 149.997 300s150-67.163 150-150.003S232.837 0 149.997 0zM150 240.462c-49.88 0-90.462-40.579-90.462-90.462S100.12 59.538 150 59.538s90.462 40.579 90.462 90.462S199.88 240.462 150 240.462z"/></svg><svg viewBox="0 0 299.997 299.997" id="email" xmlns="http://www.w3.org/2000/svg"><path d="M149.996 0C67.157 0 .001 67.158.001 149.997c0 82.837 67.156 150 149.995 150s150-67.163 150-150C299.996 67.158 232.835 0 149.996 0zm.003 52.686l88.763 55.35H61.236l88.763-55.35zm89.869 143.737h-.009c0 8.878-7.195 16.072-16.072 16.072H76.211c-8.878 0-16.072-7.195-16.072-16.072v-84.865c0-.939.096-1.852.252-2.749l84.808 52.883c.104.065.215.109.322.169.112.062.226.122.34.179a8.903 8.903 0 001.847.721c.065.018.13.026.195.041a9.148 9.148 0 002.093.265h.015c.7 0 1.401-.099 2.093-.265.065-.016.13-.023.195-.041a8.99 8.99 0 001.847-.721 9.19 9.19 0 00.34-.179c.106-.06.218-.104.322-.169l84.808-52.883c.156.897.252 1.808.252 2.749v84.865z"/></svg><svg viewBox="0 0 300 300" id="film" xmlns="http://www.w3.org/2000/svg"><path d="M149.996 0C67.157 0 .001 67.161.001 149.997S67.157 300 149.996 300s150.003-67.163 150.003-150.003S232.835 0 149.996 0zm76.95 224.021c-.001 8.593-6.97 15.562-15.563 15.562H88.622c-8.593 0-15.562-6.969-15.562-15.562V75.323c0-8.593 6.969-15.562 15.562-15.562h122.762c8.593 0 15.562 6.969 15.562 15.562v148.698z"/><path d="M183.261 161.5h-66.52a7.09 7.09 0 00-7.091 7.091v41.272a7.09 7.09 0 007.091 7.091h66.52a7.09 7.09 0 007.091-7.091v-41.272a7.087 7.087 0 00-7.091-7.091zM84.775 112.932h13.401v15.562H84.775zM84.775 83.646h13.401v15.562H84.775zM84.775 200.793h13.401v15.562H84.775zM84.775 171.506h13.401v15.562H84.775zM84.775 142.219h13.401v15.562H84.775zM183.261 82.396h-66.52a7.09 7.09 0 00-7.091 7.091v41.272a7.09 7.09 0 007.091 7.091h66.52a7.09 7.09 0 007.091-7.091V89.486a7.087 7.087 0 00-7.091-7.09zM201.92 83.646h13.401v15.562H201.92zM201.92 200.793h13.401v15.562H201.92zM201.92 112.932h13.401v15.562H201.92zM201.92 171.506h13.401v15.562H201.92zM201.92 142.219h13.401v15.562H201.92z"/></svg><svg viewBox="0 0 300 300" id="folder" xmlns="http://www.w3.org/2000/svg"><path d="M207.597 115.365h-71.22l-18.759-17.029H85.649a4.439 4.439 0 00-4.435 4.432v108.899a4.439 4.439 0 004.435 4.432h3.369l17.688-91.03h105.32v-5.27a4.438 4.438 0 00-4.429-4.434z"/><path d="M149.996 0C67.157 0 .001 67.161.001 149.997S67.157 300 149.996 300s150.003-67.163 150.003-150.003S232.835 0 149.996 0zm77.245 212.721c-.542 10.333-8.948 18.601-19.343 18.912-.101.005-.197.031-.301.031l-9.231.005-112.72-.005c-11.023 0-19.991-8.969-19.991-19.994V102.768c0-11.025 8.969-19.994 19.997-19.994h37.975l18.759 17.029h65.211c11.023 0 19.991 8.969 19.991 19.997v5.27l17.904.003-18.251 87.648z"/></svg><svg viewBox="0 0 300 300" id="gamepad" xmlns="http://www.w3.org/2000/svg"><circle cx="192.147" cy="134.719" r="8.808"/><circle cx="206.357" cy="120.516" r="8.808"/><path d="M94.61 117.808H81.642v12.32H69.323v12.968h12.319v12.319H94.61v-12.319h12.32v-12.968H94.61z"/><path d="M149.996 0C67.157 0 .001 67.161.001 149.997S67.157 300 149.996 300s150.003-67.163 150.003-150.003S232.835 0 149.996 0zm77.068 216.092h-13.279l-28.61-45.637h-70.351l-28.612 45.637H72.933c-10.468 0-18.957-8.486-18.957-18.957l4.212-66.349c0-.213.026-.379.031-.578-.003-.213-.031-.418-.031-.633 0-22.403 18.163-40.566 40.566-40.566 9.288 0 15.717 3.156 22.554 8.411 8.751-2.539 13.105-4.728 24.974-5.382h7.431c11.868.654 16.223 2.843 24.974 5.382 6.839-5.255 13.266-8.411 22.554-8.411 22.403 0 40.566 18.163 40.566 40.566 0 .215-.029.42-.031.633.005.197.031.366.031.578l4.212 66.349c-.001 10.471-8.484 18.957-18.955 18.957z"/><circle cx="220.565" cy="134.721" r="8.808"/><circle cx="206.355" cy="148.931" r="8.808"/></svg><svg viewBox="0 0 299.998 299.998" id="group" xmlns="http://www.w3.org/2000/svg"><path d="M149.997 0C67.157 0 .001 67.158.001 149.995s67.156 150.003 149.995 150.003 150-67.163 150-150.003S232.836 0 149.997 0zM40.732 206.496c0-46.858 41.152-46.848 50.284-59.1l1.045-5.587c-12.83-6.505-21.887-22.178-21.887-40.514 0-24.154 15.712-43.738 35.089-43.738 15.258 0 28.205 12.164 33.037 29.118-19.41 6.168-33.768 27.214-33.768 52.232 0 17.224 6.79 33.06 17.937 43.121-1.79.918-3.781 1.854-5.493 2.656-8.989 4.217-21.449 10.079-30.438 21.812H40.732zm109.721 37.609v-.002H85.466c0-46.856 41.152-46.843 50.284-59.095l1.045-5.587c-12.83-6.505-21.887-22.178-21.887-40.514 0-24.154 15.712-43.738 35.089-43.738s35.089 19.584 35.089 43.738c0 18.178-8.896 33.758-21.555 40.361l1.19 6.352c10.019 11.658 49.802 12.418 49.802 58.485h-64.07zm62.999-37.607v-.002c-8.992-11.731-21.452-17.592-30.441-21.809-1.769-.83-3.73-1.751-5.483-2.651 11.137-10.074 17.935-25.944 17.935-43.129 0-25.015-14.353-46.057-33.758-52.227 4.829-16.957 17.776-29.121 33.037-29.121 19.379 0 35.089 19.584 35.089 43.738 0 18.178-8.896 33.756-21.555 40.361l1.19 6.352c10.019 11.656 49.802 12.415 49.802 58.488h-45.816z"/></svg><svg viewBox="0 0 299.995 299.995" id="heart" xmlns="http://www.w3.org/2000/svg"><path d="M165.45 108.207l-9.788 9.786a7.789 7.789 0 01-7.158 2.101 7.49 7.49 0 01-4.173-2.103l-9.783-9.783c-6.549-6.546-15.149-9.822-23.749-9.822s-17.201 3.273-23.749 9.822c-12.82 12.823-12.698 33.374.283 47.805 13.232 14.708 49.605 45.027 62.666 55.788 13.061-10.758 49.442-41.085 62.677-55.788 12.978-14.428 13.1-34.982.28-47.805-13.097-13.093-34.406-13.096-47.506-.001z"/><path d="M149.995 0C67.156 0 0 67.158 0 149.995s67.156 150 149.995 150 150-67.163 150-150S232.834 0 149.995 0zm74.244 166.417c-16.98 18.866-67.049 59.619-69.174 61.343-1.489 1.211-3.286 1.826-5.07 1.74-.054.003-.112.003-.169.003a7.747 7.747 0 01-4.902-1.743c-2.124-1.725-52.188-42.478-69.163-61.341-18.612-20.689-18.49-50.445.283-69.218 19.161-19.164 50.344-19.164 69.506 0l4.448 4.448 4.451-4.451c19.161-19.161 50.341-19.159 69.508 0 18.769 18.777 18.891 48.533.282 69.219z"/></svg><svg viewBox="0 0 300 300" id="internet" xmlns="http://www.w3.org/2000/svg"><path d="M202.105 96.266a75.322 75.322 0 00-19.011-13.437c3.395 5.159 6.383 11.129 8.867 17.787a88.443 88.443 0 0010.144-4.35zM112.603 144.813h32.207v-27.29c-9.625-.418-18.931-1.774-27.601-3.989-2.596 9.482-4.222 20.1-4.606 31.279zM116.579 183.953c8.862-2.324 18.394-3.758 28.231-4.194v-24.572h-32.205c.359 10.203 1.754 19.934 3.974 28.766zM120.412 103.666c7.648 1.904 15.87 3.079 24.398 3.47V75.3a74.434 74.434 0 00-4.464.444c-7.972 4.834-14.954 14.811-19.934 27.922zM96.922 202.79a75.24 75.24 0 0023.456 15.989c-4.272-6.095-7.939-13.456-10.841-21.799-4.528 1.67-8.755 3.613-12.615 5.81zM120.288 81.26a75.133 75.133 0 00-21.586 14.239c3.613 1.937 7.521 3.639 11.656 5.125 2.74-7.348 6.094-13.863 9.93-19.364zM107.195 110.479c-5.638-2.002-10.906-4.396-15.707-7.158-9.231 11.547-15.113 25.866-16.189 41.492h26.914c.381-12.359 2.13-23.952 4.982-34.334zM102.216 155.187H75.3a74.485 74.485 0 0014.721 39.627c4.995-3.001 10.551-5.61 16.542-7.773-2.469-9.736-3.989-20.468-4.347-31.854zM140.536 224.283c1.413.176 2.837.319 4.274.418v-34.554c-8.831.415-17.359 1.681-25.262 3.719 5.056 14.383 12.46 25.341 20.988 30.417zM195.766 187c5.335 1.932 10.338 4.212 14.913 6.837 7.98-11.018 13.033-24.279 14.021-38.647h-24.595c-.357 11.367-1.872 22.087-4.339 31.81zM183.011 217.213a75.286 75.286 0 0020.858-15.25c-3.439-1.849-7.156-3.507-11.095-4.954-2.659 7.627-5.953 14.436-9.763 20.204z"/><path d="M149.997 0C67.158 0 .003 67.161.003 149.997S67.158 300 149.997 300s150-67.163 150-150.003S232.837 0 149.997 0zM150 240.462c-49.88 0-90.462-40.579-90.462-90.462S100.12 59.538 150 59.538s90.462 40.579 90.462 90.462S199.88 240.462 150 240.462z"/><path d="M162.719 76.202a75.332 75.332 0 00-7.534-.903v31.937c9.334-.275 18.352-1.512 26.711-3.597-4.822-12.687-11.521-22.444-19.177-27.437zM195.121 110.471c2.856 10.382 4.604 21.981 4.985 34.342h24.592c-1.045-15.227-6.658-29.209-15.484-40.595-4.36 2.378-9.075 4.474-14.093 6.253zM155.185 224.7a75.032 75.032 0 007.368-.871c8.201-5.262 15.307-16.002 20.212-29.948-8.613-2.223-17.955-3.543-27.58-3.833V224.7zM185.102 113.508c-9.384 2.402-19.493 3.813-29.917 4.103v27.202h34.534c-.387-11.186-2.016-21.815-4.617-31.305zM189.716 155.187h-34.531v24.486c10.732.288 21.052 1.722 30.573 4.207 2.212-8.81 3.6-18.516 3.958-28.693z"/></svg><svg viewBox="0 0 300 300" id="shield-1" xmlns="http://www.w3.org/2000/svg"><path d="M121.631 143.635l-13.639 11.998 32.726 36.476.064-.064.044.064 58.688-59.642-10.475-13.769-47.699 39.254z"/><path d="M149.997 0C67.158 0 .003 67.161.003 149.997S67.158 300 149.997 300s150-67.163 150-150.003S232.837 0 149.997 0zM150 232.886c-77.185 0-82.683-130.592-82.683-130.592l82.681-35.187H150l82.681 35.187S227.183 232.886 150 232.886z"/></svg><svg viewBox="0 0 300 300" id="shield-2" xmlns="http://www.w3.org/2000/svg"><path d="M150 225.105c39.749 0 58.545-40.546 67.35-75.105H150v75.105zM82.681 149.992H150v-74.43l-74.527 31.717c.706 8.125 2.584 24.597 7.208 42.713z"/><path d="M149.997 0C67.158 0 .003 67.161.003 149.997S67.158 300 149.997 300s150-67.163 150-150.003S232.837 0 149.997 0zm90.457 102.62c-.236 5.636-6.774 138.046-90.454 138.046-83.682 0-90.22-132.408-90.456-138.046l-.226-5.379 90.68-38.593 90.685 38.593-.229 5.379z"/></svg></svg>